<svg width="1063" height="768" viewBox="0 0 1063 768" fill="none" xmlns="http://www.w3.org/2000/svg">
<path fill-rule="evenodd" clip-rule="evenodd" d="M0 768C0 721.5 307 735.953 291 627C282.733 570.704 229.687 448.094 282.733 384C338.43 319.906 439.368 255.813 476.5 191.719C513.632 128.187 476.5 63.5 447.174 32.0469L410.042 0L1062.5 0V32.0469C1062.5 64.0938 1062.5 128.187 1062.5 191.719C1062.5 255.813 1062.5 319.906 1062.5 384C1062.5 448.094 1062.5 512.187 1062.5 575.719C1062.5 639.813 1062.5 703.906 1062.5 735.953V768L0 768Z" fill="#0172A7"/>
<path fill-rule="evenodd" clip-rule="evenodd" d="M641.066 768C641.066 768 678.629 723.5 546.629 605C505.77 568.32 405.916 517.5 425.522 384C445.129 250.5 560.474 250.5 740.979 173.5C797.629 149.334 836.071 109.5 723.327 6.10352e-05L1062.13 6.10352e-05V32.0001C1062.13 64.0001 1062.13 128 1062.13 192C1062.13 256 1062.13 320 1062.13 384C1062.13 448 1062.13 512 1062.13 576C1062.13 640 1062.13 704 1062.13 736V768L641.066 768Z" fill="#3CB5F5"/>
</svg>
